<svg xmlns="http://www.w3.org/2000/svg" viewBox="0 0 1024 1024">
  <path fill="none" stroke="#2ecb71" stroke-linecap="round" stroke-width="70" stroke-miterlimit="100" fill-rule="evenodd" d="m161.25 698.87c-152.05-344.77 132.16-583.37 352.25-583.37 137 0 286.59 70.82 329.22 174.05"/>
  <path fill="none" stroke="#2ecb71" stroke-linecap="round" stroke-width="70" stroke-miterlimit="100" fill-rule="evenodd" d="m910.76 517.89c-6.32 183.63-149.39 333.88-292.42 372.27-132.32 35.52-295.15 5.9-363.09-82.75"/>
  <path fill="none" stroke="#2ecb71" stroke-linecap="round" stroke-width="70" stroke-miterlimit="100" d="m792 512h195"/>
  <path fill-rule="evenodd" fill="#2ecb71" d="m373.03 600.14c-42.48 11.38-87.68-19.93-101.11-70.06-13.43-50.13 10.05-99.85 52.53-111.23 42.48-11.38 87.67 19.93 101.1 70.06 13.44 50.13-10.04 99.85-52.52 111.23z"/>
  <path fill="none" stroke="#2ecb71" stroke-linecap="round" stroke-linejoin="round" stroke-width="70" d="m688 350c-57.46 19.29-103.01 62.55-125 116 44.77-19.85 85.19-21.56 122.76-7.33"/>
</svg>
